# xmcd
#
# Track frame offsets:
#	150
#	17705
#	38114
#	57685
#	72807
#	91002
#	108031
#	132299
#	151809
#	168037
#	187552
#	206941
#	225905
#
# Disc length: 3213 seconds
#
# Revision: 0
# Processed by: cddbd v1.5.1PL0 Copyright (c) Steve Scherf et al.
# Submitted via: dBpowerAMP V4.0
#
DISCID=950c8b0d
DTITLE=The Jeff Healey Band - Get Me Some
DYEAR=1900
DGENRE=Blues
TTITLE0=Which One
TTITLE1=Hey Hey
TTITLE2=Love Is The Answer
TTITLE3=My Life Story
TTITLE4=I Tried
TTITLE5=The Damage Is Done
TTITLE6=Feel Better
TTITLE7=Holding On
TTITLE8=I Should Have Told You
TTITLE9=Macon Georgia Blue
TTITLE10=House Is Burning Down
TTITLE11=Runaway Heart
TTITLE12=Rachel's Song
EXTD=\n
EXTT0=
EXTT1=
EXTT2=
EXTT3=
EXTT4=
EXTT5=
EXTT6=
EXTT7=
EXTT8=
EXTT9=
EXTT10=
EXTT11=
EXTT12=
PLAYORDER=
